<svg height="512" viewBox="0 0 512 512" width="512" xmlns="http://www.w3.org/2000/svg"><path d="m244.018 360h-4a47.973 47.973 0 0 0 -95.439-6.986 8 8 0 0 0 15.836 2.291 31.977 31.977 0 1 1 31.6 36.7h-8v8c0 1.227 0 1.227 1.749 7.711 1.929 7.157 5.523 20.479 6.359 25.6 2.72 16.317-.576 30.11-9.8 40.994-11.5 13.58-31.802 21.69-54.305 21.69a63.851 63.851 0 0 1 -53.188-28.445l-2.376-3.555h-56.436v-48.182a80.017 80.017 0 0 0 39.573 28.282 8 8 0 1 0 4.853-15.247 64.352 64.352 0 0 1 -40.733-39.549l-1.897-5.304h-17.796v96h64.024a79.8 79.8 0 0 0 63.976 32c27.145 0 52.012-10.224 66.519-27.349 12.227-14.433 16.851-33.094 13.376-53.941-.837-5.126-3.655-15.841-5.787-23.781a48.178 48.178 0 0 0 35.142-30.929h6.75a8 8 0 1 0 0-16z"/><path d="m368.018 193.451c0-36.091-30.248-65.452-67.429-65.452a68.558 68.558 0 0 0 -44.571 16.414 68.567 68.567 0 0 0 -44.572-16.413c-37.18 0-67.428 29.361-67.428 65.452 0 67.269 104.671 108.3 109.128 110.014l2.872 1.105 2.872-1.105c4.456-1.715 109.128-42.746 109.128-110.015zm-112 93.905c-16.279-6.848-96-43-96-93.9 0-27.268 23.071-49.452 51.428-49.452a52.329 52.329 0 0 1 38.654 16.921l5.914 6.493 5.914-6.494a52.324 52.324 0 0 1 38.661-16.924c28.357 0 51.429 22.184 51.429 49.452 0 50.818-79.735 87.048-96.003 93.904z"/><circle cx="256.02" cy="104" r="8"/><path d="m256.02 80a8.011 8.011 0 0 0 8-8v-64a8 8 0 0 0 -16 0v64a8.01 8.01 0 0 0 8 8z"/><path d="m512.02 200a8.011 8.011 0 0 0 -8-8h-64a8 8 0 0 0 0 16h64a8.011 8.011 0 0 0 8-8z"/><circle cx="408.02" cy="200" r="8"/><path d="m112.01 200a8 8 0 1 0 -7.99 8 8 8 0 0 0 7.99-8z"/><path d="m8.02 208h64a8 8 0 0 0 0-16h-64a8 8 0 0 0 0 16z"/><path d="m458.76 63.19a7.951 7.951 0 0 0 5.66-2.34l45.25-45.25a8 8 0 0 0 -11.311-11.32l-45.25 45.26a8 8 0 0 0 5.651 13.65z"/><path d="m376.02 145.94a7.945 7.945 0 0 0 5.65-2.34l37.49-37.49a8 8 0 0 0 -11.31-11.32l-37.491 37.49a8 8 0 0 0 5.661 13.66z"/><path d="m436.13 85.82a7.988 7.988 0 1 0 -5.651-2.34 7.949 7.949 0 0 0 5.651 2.34z"/><path d="m130.359 141.66a8 8 0 1 0 11.311-11.32l-37.49-37.49a8 8 0 1 0 -11.31 11.32z"/><path d="m75.9 83.88a7.991 7.991 0 1 0 -5.659-2.34 7.95 7.95 0 0 0 5.659 2.34z"/><path d="m47.609 58.91a8 8 0 0 0 11.321-11.31l-45.26-45.26a7.995 7.995 0 0 0 -13.65 5.66 7.929 7.929 0 0 0 2.339 5.65z"/><path d="m193.37 364.44a7.817 7.817 0 0 0 .989 1.22 8.384 8.384 0 0 0 1.221.99 7.923 7.923 0 0 0 1.38.74 8.337 8.337 0 0 0 1.5.45 8.176 8.176 0 0 0 1.56.16 8.088 8.088 0 0 0 5.65-2.34 7.834 7.834 0 0 0 1.729-2.6 7.738 7.738 0 0 0 .46-1.5 7.638 7.638 0 0 0 0-3.12 7.531 7.531 0 0 0 -.46-1.5 7.834 7.834 0 0 0 -1.729-2.6 7.3 7.3 0 0 0 -1.21-.99 8.34 8.34 0 0 0 -1.38-.74 8.071 8.071 0 0 0 -1.5-.45 7.8 7.8 0 0 0 -3.12 0 7.6 7.6 0 0 0 -1.5.45 7.923 7.923 0 0 0 -1.38.74 7.557 7.557 0 0 0 -2.21 2.21 7.959 7.959 0 0 0 -.74 1.38 8.41 8.41 0 0 0 -.46 1.5 8.187 8.187 0 0 0 0 3.12 8.669 8.669 0 0 0 .46 1.5 7.959 7.959 0 0 0 .74 1.38z"/><path d="m319.4 356.94a7.834 7.834 0 0 0 -1.729-2.6 7.3 7.3 0 0 0 -1.21-.99 8.34 8.34 0 0 0 -1.38-.74 8.094 8.094 0 0 0 -4.63-.45 7.712 7.712 0 0 0 -1.49.45 7.611 7.611 0 0 0 -1.38.74 7.774 7.774 0 0 0 -1.221.99 8.572 8.572 0 0 0 -1 1.22 8.729 8.729 0 0 0 -.729 1.38 8.41 8.41 0 0 0 -.46 1.5 8.187 8.187 0 0 0 0 3.12 8.317 8.317 0 0 0 1.189 2.88 8.572 8.572 0 0 0 1 1.22 8.055 8.055 0 0 0 5.66 2.34 7.512 7.512 0 0 0 1.56-.16 8.071 8.071 0 0 0 1.5-.45 8.34 8.34 0 0 0 1.38-.74 7.865 7.865 0 0 0 2.939-3.59 7.738 7.738 0 0 0 .46-1.5 7.638 7.638 0 0 0 0-3.12 7.531 7.531 0 0 0 -.459-1.5z"/><path d="m492.324 389.306a64.354 64.354 0 0 1 -40.733 39.549 8 8 0 0 0 4.853 15.247 80.01 80.01 0 0 0 39.574-28.285v48.183h-56.437l-2.376 3.556a63.85 63.85 0 0 1 -53.187 28.444c-22.5 0-42.806-8.109-54.312-21.691-9.221-10.884-12.517-24.677-9.793-41.021.832-5.1 4.426-18.423 6.357-25.581 1.748-6.48 1.748-6.48 1.748-7.707v-8h-8a32 32 0 1 1 31.6-36.7 8 8 0 0 0 15.836-2.29 47.972 47.972 0 0 0 -95.436 6.99h-4a8 8 0 0 0 0 16h6.749a48.18 48.18 0 0 0 35.142 30.929c-2.132 7.94-4.95 18.653-5.783 23.755-3.479 20.873 1.145 39.534 13.372 53.967 14.507 17.124 39.374 27.349 66.52 27.349a79.8 79.8 0 0 0 63.975-32h64.025v-96h-17.8z"/><path d="m412.09 406.4a8.013 8.013 0 0 0 -6.43-12.76 8.005 8.005 0 1 0 6.43 12.76z"/><path d="m407.16 448.76a8.016 8.016 0 0 0 11.11-2.17l74.18-110.09.029-.05-6.639-4.47a68.055 68.055 0 0 0 -38.13-11.67h-.061a68.3 68.3 0 0 0 -56.719 30.17l-36 53.43a38.186 38.186 0 0 0 10.33 53.01l6.349 4.29 21.471-29.07a8.013 8.013 0 0 0 -1.69-11.19 7.922 7.922 0 0 0 -4.741-1.56 8.037 8.037 0 0 0 -6.439 3.24l-11.57 15.67a22.148 22.148 0 0 1 -.44-25.44l36-53.44a52.38 52.38 0 0 1 43.489-23.11 51.7 51.7 0 0 1 22.241 4.98l-64.93 96.36a8.006 8.006 0 0 0 2.16 11.11z"/><path d="m424.649 383.9a8.058 8.058 0 0 0 6.451-3.24l11.74-15.91a8 8 0 1 0 -12.87-9.5l-11.741 15.9a7.994 7.994 0 0 0 6.42 12.75z"/><path d="m131.819 422.63a8.045 8.045 0 0 0 -6.439-3.25 7.865 7.865 0 0 0 -4.74 1.57 8 8 0 0 0 -1.69 11.19l21.44 29.03.03.04 6.36-4.29a38.172 38.172 0 0 0 10.329-53l-36.009-53.44a68.31 68.31 0 0 0 -56.72-30.17h-.05a67.92 67.92 0 0 0 -38.141 11.68l-6.629 4.47 74.21 110.13a7.995 7.995 0 0 0 13.27-8.92l-64.931-96.38a51.663 51.663 0 0 1 22.231-4.98 52.4 52.4 0 0 1 43.5 23.12l36 53.42a22.211 22.211 0 0 1 -.441 25.45z"/><path d="m106.37 393.64a7.863 7.863 0 0 0 -4.74 1.57 7.98 7.98 0 1 0 4.74-1.57z"/><path d="m75.62 352a8 8 0 0 0 -6.431 12.75l11.741 15.9a8.05 8.05 0 0 0 6.45 3.25 7.865 7.865 0 0 0 4.74-1.57 7.983 7.983 0 0 0 1.68-11.18l-11.74-15.9a8.02 8.02 0 0 0 -6.44-3.25z"/></svg>